<svg xmlns="http://www.w3.org/2000/svg" version="1.1" xmlns:xlink="http://www.w3.org/1999/xlink" xmlns:svgjs="http://svgjs.dev/svgjs" width="2000" height="1945" viewBox="0 0 2000 1945"><g transform="matrix(1,0,0,1,-0.6749579831933943,-3.1370967741935374)"><svg viewBox="0 0 255 248" data-background-color="#ffffff" preserveAspectRatio="xMidYMid meet" height="1945" width="2000" xmlns="http://www.w3.org/2000/svg" xmlns:xlink="http://www.w3.org/1999/xlink"><g id="tight-bounds" transform="matrix(1,0,0,1,0.08605714285715749,0.4000000000000057)"><svg viewBox="0 0 254.82788571428569 247.2" height="247.2" width="254.82788571428569"><g><svg viewBox="0 0 254.8278857142857 247.20000000000002" height="247.2" width="254.82788571428569"><g><svg viewBox="0 0 254.8278857142857 247.20000000000002" height="247.20000000000002" width="254.8278857142857"><g id="textblocktransform"><svg viewBox="0 0 254.8278857142857 247.20000000000002" height="247.20000000000002" width="254.8278857142857" id="textblock"><g><svg viewBox="0 0 254.8278857142857 247.20000000000002" height="247.20000000000002" width="254.8278857142857"><g transform="matrix(1,0,0,1,0,0)"><svg width="254.8278857142857" viewBox="0.95 -43.35 45.099999999999994 43.75" height="247.20000000000002" data-palette-color="url(#f042949c-7d04-49be-a7a4-dc1bc0337583)"></svg></g></svg></g></svg></g></svg></g></svg></g><defs></defs><mask id="c70e15aa-6f27-45b9-83af-e82217ea6b47"><g id="SvgjsG2114"><svg viewBox="0 0 254.82788571428569 247.2" height="247.2" width="254.82788571428569"><g><svg viewBox="0 0 254.8278857142857 247.20000000000002" height="247.2" width="254.82788571428569"><g><svg viewBox="0 0 254.8278857142857 247.20000000000002" height="247.20000000000002" width="254.8278857142857"><g id="SvgjsG2113"><svg viewBox="0 0 254.8278857142857 247.20000000000002" height="247.20000000000002" width="254.8278857142857" id="SvgjsSvg2112"><g><svg viewBox="0 0 254.8278857142857 247.20000000000002" height="247.20000000000002" width="254.8278857142857"><g transform="matrix(1,0,0,1,0,0)"><svg width="254.8278857142857" viewBox="0.95 -43.35 45.099999999999994 43.75" height="247.20000000000002" data-palette-color="url(#f042949c-7d04-49be-a7a4-dc1bc0337583)"><path d="M11.45 0.4Q8.5 0.4 6.1-0.75 3.7-1.9 2.33-4.13 0.95-6.35 0.95-9.5L0.95-9.5 0.95-20.25 9.4-20.25 9.4-10Q9.4-8.85 9.88-8.18 10.35-7.5 11.35-7.5L11.35-7.5Q12.3-7.5 12.78-8.13 13.25-8.75 13.25-9.9L13.25-9.9 13.25-42.95 21.9-42.95 21.9-10.75Q21.9-7.4 20.58-4.88 19.25-2.35 16.88-0.98 14.5 0.4 11.45 0.4L11.45 0.4ZM35.45 0.4Q30.25 0.4 27.55-2.78 24.85-5.95 24.85-11.7L24.85-11.7 24.85-32.15Q24.85-37.7 27.55-40.53 30.25-43.35 35.45-43.35L35.45-43.35Q40.65-43.35 43.35-40.53 46.05-37.7 46.05-32.15L46.05-32.15 46.05-11.7Q46.05-5.9 43.35-2.75 40.65 0.4 35.45 0.4L35.45 0.4ZM35.45-7.5Q36.6-7.5 37-8.5 37.4-9.5 37.4-11.3L37.4-11.3 37.4-32.3Q37.4-33.7 37.02-34.58 36.65-35.45 35.5-35.45L35.5-35.45Q33.35-35.45 33.35-32.2L33.35-32.2 33.35-11.25Q33.35-9.4 33.8-8.45 34.25-7.5 35.45-7.5L35.45-7.5Z" opacity="1" transform="matrix(1,0,0,1,0,0)" fill="white" class="wordmark-text-0" id="SvgjsPath2111"></path></svg></g></svg></g></svg></g></svg></g></svg></g><defs><mask></mask></defs></svg><rect width="254.82788571428569" height="247.2" fill="black" stroke="none" visibility="hidden"></rect></g></mask><linearGradient x1="0" x2="1" y1="0.548" y2="0.55" id="f042949c-7d04-49be-a7a4-dc1bc0337583"><stop stop-color="#ff6cab" offset="0"></stop><stop stop-color="#7366ff" offset="1"></stop></linearGradient><rect width="254.82788571428569" height="247.2" fill="url(#f042949c-7d04-49be-a7a4-dc1bc0337583)" mask="url(#c70e15aa-6f27-45b9-83af-e82217ea6b47)" data-fill-palette-color="primary"></rect></svg><rect width="254.82788571428569" height="247.2" fill="none" stroke="none" visibility="hidden"></rect></g></svg></g></svg>